# xmcd CD database file
#
# Track frame offsets:
#	150
#	22427
#	54825
#	85807
#	103322
#	122762
#	130542
#	152385
#	171472
#	176347
#	209312
#	240810
#	266272
#
# Disc length: 3623 seconds
#
# Revision: 0
# Processed by: cddbd v1.5.2PL0 Copyright (c) Steve Scherf et al.
# Submitted via: CDex 1.70beta2
#
DISCID=a10e250d
DTITLE=Jovino Santos Neto Quarteto - Quarteto Caboclo
DYEAR=1997
DGENRE=Jazz
TTITLE0=Viva O Rio de Janeiro
TTITLE1=Cabocio
TTITLE2=Intro - Hoping For the Day
TTITLE3=Choreletico
TTITLE4=Boa Viagem Pra Olinda
TTITLE5=Nuvens Claras
TTITLE6=Metamorph
TTITLE7=Sete Penas :: Seven Feathers
TTITLE8=Luz
TTITLE9=O Tetra
TTITLE10=Mais que Tudo
TTITLE11=Song For a New Home
TTITLE12=No Horizonte Do Som
EXTD=YEAR: 1997
EXTT0=
EXTT1=
EXTT2=
EXTT3=
EXTT4=
EXTT5=
EXTT6=
EXTT7=
EXTT8=
EXTT9=
EXTT10=
EXTT11=
EXTT12=
PLAYORDER=
